<mxfile host="app.diagrams.net" modified="2021-01-04T12:06:55.242Z" agent="5.0 (X11; Linux x86_64) AppleWebKit/537.36 (KHTML, like Gecko) Chrome/87.0.4280.88 Safari/537.36" etag="TBjx9IYZ4fGxN-oKSJ8c" version="14.1.7" type="github" pages="3">
  <diagram id="sH0x38LGL1xWSvsTcwyL" name="Page-2">
    <mxGraphModel dx="868" dy="426" grid="1" gridSize="10" guides="1" tooltips="1" connect="1" arrows="1" fold="1" page="1" pageScale="1" pageWidth="827" pageHeight="1169" math="0" shadow="0">
      <root>
        <mxCell id="SeLG03hmXYlSE1SJ7869-0" />
        <mxCell id="SeLG03hmXYlSE1SJ7869-1" parent="SeLG03hmXYlSE1SJ7869-0" />
        <mxCell id="SeLG03hmXYlSE1SJ7869-2" value="We are going to learn the best practises and principles f software dvlopment and best way to lear them is to stiudy patterns and frameworks&lt;br style=&quot;font-size: 26px;&quot;&gt;&lt;font style=&quot;font-size: 26px;&quot;&gt;&lt;br style=&quot;font-size: 26px;&quot;&gt;&lt;/font&gt;" style="text;html=1;strokeColor=none;fillColor=none;align=center;verticalAlign=middle;whiteSpace=wrap;rounded=0;fontSize=26;" vertex="1" parent="SeLG03hmXYlSE1SJ7869-1">
          <mxGeometry x="74" y="210" width="680" height="20" as="geometry" />
        </mxCell>
      </root>
    </mxGraphModel>
  </diagram>
  <diagram id="3nkxmtmu4TCuEBxFwG5i" name="Definition">
    <mxGraphModel dx="868" dy="426" grid="1" gridSize="10" guides="1" tooltips="1" connect="1" arrows="1" fold="1" page="1" pageScale="1" pageWidth="827" pageHeight="1169" math="0" shadow="0">
      <root>
        <mxCell id="0" />
        <mxCell id="1" parent="0" />
        <mxCell id="3vd8_T6Nd3xBB72trb41-1" value="&lt;span style=&quot;font-size: 58px&quot;&gt;What are design patterns&lt;/span&gt;" style="text;html=1;strokeColor=none;fillColor=none;align=center;verticalAlign=middle;whiteSpace=wrap;rounded=0;" vertex="1" parent="1">
          <mxGeometry x="80" y="150" width="690" height="20" as="geometry" />
        </mxCell>
        <mxCell id="3vd8_T6Nd3xBB72trb41-2" value="&lt;font style=&quot;font-size: 23px&quot;&gt;Design patterns are the reusable solution of the common software problems that are faced by millions of software developers over time&lt;/font&gt;" style="text;html=1;strokeColor=none;fillColor=none;align=center;verticalAlign=middle;whiteSpace=wrap;rounded=0;" vertex="1" parent="1">
          <mxGeometry x="90" y="240" width="680" height="120" as="geometry" />
        </mxCell>
      </root>
    </mxGraphModel>
  </diagram>
  <diagram id="tqAF25jiGwi4qVH-llj4" name="Page-3">
    <mxGraphModel dx="868" dy="426" grid="1" gridSize="10" guides="1" tooltips="1" connect="1" arrows="1" fold="1" page="1" pageScale="1" pageWidth="827" pageHeight="1169" math="0" shadow="0">
      <root>
        <mxCell id="2glpCR89oILXWb91nQ9K-0" />
        <mxCell id="2glpCR89oILXWb91nQ9K-1" parent="2glpCR89oILXWb91nQ9K-0" />
        <mxCell id="2glpCR89oILXWb91nQ9K-4" value="Framework is the group of software components which together solve a similar set of problem." style="text;html=1;strokeColor=none;fillColor=none;align=center;verticalAlign=middle;whiteSpace=wrap;rounded=0;fontSize=26;" vertex="1" parent="2glpCR89oILXWb91nQ9K-1">
          <mxGeometry x="72" y="90" width="770" height="70" as="geometry" />
        </mxCell>
      </root>
    </mxGraphModel>
  </diagram>
</mxfile>
